# xmcd
#
# Track frame offsets:
#	150
#	15360
#	28950
#	47780
#	66380
#	83057
#	98142
#	113317
#	131815
#	145292
#	159215
#	175370
#	192720
#
# Disc length: 2726 seconds
#
# Revision: 0
# Processed by: cddbd v1.5.1PL0 Copyright (c) Steve Scherf et al.
# Submitted via: dBpowerAMP V4.0
#
DISCID=af0aa40d
DTITLE=Steve Cheseborough - Outstanding Blues
DYEAR=1997
DGENRE=Blues
TTITLE0=Steve Cheseborough - Screamin' and Hollerin' (Patton)
TTITLE1=Steve Cheseborough - What Do You Want Your Daddy To Do? (Carter)
TTITLE2=Steve Cheseborough - Cigarette Blues (Carter)
TTITLE3=Steve Cheseborough - My Black Mama (House)
TTITLE4=Steve Cheseborough - You've Got Something There (Fuller)
TTITLE5=Steve Cheseborough - Trouble Man Blues (Coleman)
TTITLE6=Steve Cheseborough - Turn Your Money Green (Lewis)
TTITLE7=Steve Cheseborough - Untrue Blues (Fuller)
TTITLE8=Steve Cheseborough - Over The Hill (McDowell)
TTITLE9=Steve Cheseborough - Mr. Crump Don't Like It (Unknown)
TTITLE10=Steve Cheseborough - Come On In My Kitchen (Johnson)
TTITLE11=Steve Cheseborough - Drinkin Water From A Hollow Log (Mc Dowell and Johnson)
TTITLE12=Steve Cheseborough - Let The Mermaids Flirt With Me (Hurt)
EXTD=In brackets are names of original composers\n
EXTT0=
EXTT1=
EXTT2=
EXTT3=
EXTT4=
EXTT5=
EXTT6=
EXTT7=
EXTT8=
EXTT9=
EXTT10=
EXTT11=
EXTT12=
PLAYORDER=
